PathFileType	4	(x/y/z)	S06_PSF_T08
DataRate	CameraRate	NumFrames	NumMarkers	Units	OrigDataRate	OrigDataStartFrame	OrigNumFrames
240	240	4	51	mm	240	306	407
Frame#	Time	Sternum			R.Acromium			L.Acromium			Top.Head			R.ASIS			L.ASIS			R.PSIS			L.PSIS			R.Great.Tro			L.Great.Tro			R.Iliac.Crest			L.Iliac.Crest			V.Sacral			R.Thigh.Upper.Post			R.Thigh.Lower.Ant			R.Thigh.Lower.Post			R.Thigh.Upper.Ant			R.Knee.Lat			R.Knee.Med			R.Shank.Upper.Post			R.Shank.Lower.Ant			R.Shank.Lower.Post			R.Shank.Upper.Ant			R.Ankle.Lat			R.Ankle.Med			R.Heel.Upper			R.Heel.Med			R.Heel.Lat			R.Toe.Lat			R.Toe.Med			R.Toe.Tip			L.Thigh.Upper.Post			L.Thigh.Lower.Ant			L.Thigh.Lower.Post			L.Thigh.Upper.Ant			L.Knee.Lat			L.Knee.Med			L.Shank.Upper.Post			L.Shank.Lower.Ant			L.Shank.Lower.Post			L.Shank.Upper.Ant			L.Ankle.Lat			L.Ankle.Med			L.Heel.Upper			L.Heel.Med			L.Heel.Lat			L.Toe.Lat			L.Toe.Med			L.Toe.Tip			Cervical.Spine			Back			
		X1	Y1	Z1	X2	Y2	Z2	X3	Y3	Z3	X4	Y4	Z4	X5	Y5	Z5	X6	Y6	Z6	X7	Y7	Z7	X8	Y8	Z8	X9	Y9	Z9	X10	Y10	Z10	X11	Y11	Z11	X12	Y12	Z12	X13	Y13	Z13	X14	Y14	Z14	X15	Y15	Z15	X16	Y16	Z16	X17	Y17	Z17	X18	Y18	Z18	X19	Y19	Z19	X20	Y20	Z20	X21	Y21	Z21	X22	Y22	Z22	X23	Y23	Z23	X24	Y24	Z24	X25	Y25	Z25	X26	Y26	Z26	X27	Y27	Z27	X28	Y28	Z28	X29	Y29	Z29	X30	Y30	Z30	X31	Y31	Z31	X32	Y32	Z32	X33	Y33	Z33	X34	Y34	Z34	X35	Y35	Z35	X36	Y36	Z36	X37	Y37	Z37	X38	Y38	Z38	X39	Y39	Z39	X40	Y40	Z40	X41	Y41	Z41	X42	Y42	Z42	X43	Y43	Z43	X44	Y44	Z44	X45	Y45	Z45	X46	Y46	Z46	X47	Y47	Z47	X48	Y48	Z48	X49	Y49	Z49	X50	Y50	Z50	X51	Y51	Z51	

306	1.2708	200.97	1288	329.34	70.918	1493.3	496.06	59.161	1487.4	142.99	91.674	1808.7	315.35	148.99	1045	456.73	168.1	1051.4	205.12	-44.5	1067.9	356.01	-40.907	1072.6	275.31	87.867	968.76	503.65	75.335	973.48	147.24	66.099	1122	485.07	96.135	1121.1	166.07	-57.017	1036	317.89	105.25	719.16	511.2	170.46	641.54	491.66	101.47	630.27	498.77	177.29	732.39	499.22	114.79	523.57	492.72	140.93	518.27	365.57	-74.668	405.43	483.54	-86.219	319.52	457.59	-137.1	361.79	466.55	-25.48	363.86	475.77	-216.54	262.54	438.34	-197.07	256.64	350.92	-272.1	299.3	387.82	-294.61	282.16	353.39	-300.81	276.98	418.11	-242.56	107.15	448.6	-213.46	99.29	332.12	-175.9	42.818	375.3	179.88	720.72	174.2	235.72	654.3	242.18	173.59	632.68	197.73	235.15	745.78	214.72	174.91	540.14	216.28	193.32	555.14	336.7	148.96	309.55	234.74	217.74	253.42	242.36	148.82	238.47	254.9	213.92	323.2	227.68	205.57	105.53	261.44	212.18	128	348.59	129.64	72.517	307.86	134.2	44.174	340.5	134.68	46.086	278.5	314.59	45.304	240.77	333.54	47.251	360.06	405.63	62.372	305.67	7.4389	1541.7	320.86	-40.956	1267	325.32
307	1.275	206.16	1288.4	329.4	76.085	1493.8	496.03	64.814	1487.9	142.93	97.005	1809.3	315.16	153.97	1045.4	456.4	173.23	1051.9	204.82	-39.387	1068.4	355.61	-35.832	1073	274.9	93.136	969.23	503.37	80.37	974.04	146.93	71.056	1122.4	484.81	101.36	1121.6	165.79	-52.034	1036.5	317.5	114.26	720.1	511.42	180.41	643.2	491.67	111.48	631.15	499.12	185.96	734.15	498.81	126.12	524.7	493.14	151.37	519.61	365.68	-63.224	406.7	484.39	-75.044	320.97	458.21	-125.86	363.24	467.65	-14.159	365.17	476.25	-205.77	264.52	439.17	-186.33	258.32	351.88	-261.65	300.84	388.39	-284.12	283.29	354.17	-290.19	278.66	418.94	-230.99	109.54	450.79	-201.99	100.65	334.43	-164.19	44.157	378.08	183.55	720.83	174	239.14	654.16	241.9	176.81	632.85	197.62	239.07	745.62	214.39	177.71	540.31	216.24	196.14	555.27	336.66	150.45	309.84	234.87	218.91	253.32	242.48	149.93	238.78	255.07	215.49	323.11	227.75	205.9	105.58	261.66	212.56	128.01	348.77	129.71	72.622	307.94	134.25	44.218	340.55	134.74	46.215	278.56	314.66	45.318	240.82	333.68	46.784	360.25	405.78	61.78	305.82	12.85	1542.3	320.75	-35.804	1267.6	325.04
308	1.2792	211.33	1288.8	329.46	81.226	1494.2	496.02	70.442	1488.4	142.88	102.34	1809.8	315	158.93	1045.8	456.1	178.34	1052.4	204.54	-34.307	1068.9	355.2	-30.776	1073.5	274.49	98.362	969.73	503.11	85.376	974.56	146.63	75.992	1122.8	484.54	106.58	1122.1	165.51	-47.07	1037.1	317.12	123.23	721.13	511.61	190.3	644.97	491.64	121.44	632.14	499.43	194.56	735.99	498.37	137.38	525.93	493.5	161.78	521.05	365.75	-51.787	407.92	485.15	-63.777	322.33	458.79	-114.56	364.56	468.67	-2.7975	366.46	476.7	-194.85	266.26	439.94	-175.4	259.77	352.79	-251.14	302.01	388.88	-273.51	283.99	354.89	-279.46	279.93	419.7	-218.97	111.73	453	-190.07	101.81	336.76	-151.9	45.522	380.89	187.18	720.93	173.81	242.51	653.99	241.62	179.96	633.02	197.53	242.92	745.44	214.07	180.41	540.47	216.21	198.88	555.38	336.63	151.88	310.13	235.02	220.02	253.23	242.6	150.98	239.07	255.24	216.98	323.02	227.82	206.21	105.63	261.87	212.92	128.02	348.96	129.78	72.722	308.02	134.29	44.26	340.6	134.79	46.341	278.62	314.72	45.333	240.87	333.8	46.352	360.44	405.91	61.234	305.95	18.242	1542.9	320.65	-30.669	1268.3	324.74
309	1.2833	216.49	1289.2	329.53	86.341	1494.7	496.01	76.044	1488.9	142.84	107.69	1810.4	314.86	163.88	1046.3	455.82	183.43	1052.9	204.28	-29.257	1069.3	354.79	-25.737	1074	274.07	103.55	970.26	502.85	90.354	975.05	146.34	80.91	1123.3	484.28	111.81	1122.6	165.23	-42.124	1037.7	316.74	132.13	722.24	511.77	200.11	646.82	491.56	131.35	633.22	499.7	203.08	737.9	497.92	148.57	527.26	493.8	172.15	522.59	365.78	-40.364	409.1	485.84	-52.422	323.61	459.35	-103.21	365.76	469.6	8.5986	367.75	477.11	-183.78	267.75	440.67	-164.3	260.98	353.67	-240.54	302.82	389.32	-262.79	284.28	355.55	-268.6	280.82	420.41	-206.53	113.68	455.22	-177.71	102.76	339.09	-139.07	46.884	383.71	190.74	721.02	173.64	245.81	653.81	241.35	183.04	633.18	197.43	246.73	745.23	213.76	183.03	540.63	216.19	201.55	555.47	336.6	153.23	310.4	235.17	221.08	253.15	242.71	151.98	239.36	255.42	218.41	322.92	227.88	206.5	105.68	262.08	213.27	128.04	349.14	129.85	72.819	308.09	134.34	44.301	340.65	134.84	46.464	278.67	314.78	45.35	240.92	333.93	45.954	360.61	406.04	60.731	306.07	23.615	1543.6	320.56	-25.549	1268.9	324.44
